<?xml version="1.0" encoding="UTF-8"?>
<!DOCTYPE svg PUBLIC "-//W3C//DTD SVG 1.0//EN" "http://www.w3.org/TR/2001/REC-SVG-20010904/DTD/svg10.dtd">
<!-- Creator: CorelDRAW X8 -->
<svg xmlns="http://www.w3.org/2000/svg" xml:space="preserve" width="267.424mm" height="331.775mm" version="1.0" style="shape-rendering:geometricPrecision; text-rendering:geometricPrecision; image-rendering:optimizeQuality; fill-rule:evenodd; clip-rule:evenodd"
viewBox="0 0 26742 33177"
 xmlns:xlink="http://www.w3.org/1999/xlink">
 <defs>
  <style type="text/css">
   <![CDATA[
    .fil0 {fill:#F4AB37;fill-rule:nonzero}
    .fil1 {fill:#FC7851;fill-rule:nonzero}
   ]]>
  </style>
 </defs>
 <g id="Слой_x0020_1">
  <metadata id="CorelCorpID_0Corel-Layer"/>
  <g id="_2718626990592">
   <path class="fil0" d="M8898 33177c-2457,0 -4682,-995 -6292,-2606 -1610,-1610 -2606,-3834 -2606,-6291 0,-2457 996,-4682 2606,-6292 1610,-1610 3835,-2606 6292,-2606 2457,0 4681,996 6291,2606 1610,1610 2606,3835 2606,6292 0,2457 -996,4681 -2606,6291 -1610,1611 -3834,2606 -6291,2606zm-5582 -3316c1428,1429 3402,2312 5582,2312 2179,0 4153,-883 5581,-2312 1429,-1428 2312,-3401 2312,-5581 0,-2180 -883,-4153 -2312,-5582 -1428,-1428 -3402,-2312 -5581,-2312 -2180,0 -4154,884 -5582,2312 -1428,1429 -2312,3402 -2312,5582 0,2180 884,4153 2312,5581z"/>
   <path class="fil1" d="M17845 17795c-2457,0 -4682,-996 -6292,-2606 -1610,-1610 -2606,-3834 -2606,-6291 0,-2457 996,-4682 2606,-6292 1610,-1610 3835,-2606 6292,-2606 2457,0 4681,996 6291,2606 1610,1610 2606,3835 2606,6292 0,2457 -996,4681 -2606,6291 -1610,1610 -3834,2606 -6291,2606zm-5582 -3316c1429,1429 3402,2312 5582,2312 2180,0 4153,-883 5581,-2312 1429,-1428 2312,-3402 2312,-5581 0,-2180 -883,-4154 -2312,-5582 -1428,-1428 -3401,-2312 -5581,-2312 -2180,0 -4153,884 -5582,2312 -1428,1428 -2312,3402 -2312,5582 0,2179 884,4153 2312,5581z"/>
  </g>
 </g>
</svg>
