<svg width="1920" height="2049" viewBox="0 0 1920 2049" fill="none" xmlns="http://www.w3.org/2000/svg"><path fill="none" d="M-293 0h2506v2049H-293z"/><path fill="none" d="M-293 408h2506v1358H-293z"/><path fill="none" d="M1628 408h585v219h-585z"/><rect x="1628" y="563.669" width="589.026" height="41" rx="8" transform="rotate(-12 1628 563.669)" fill="#fc7851" /><rect x="1806" y="448.365" width="193.787" height="46.967" rx="8" transform="rotate(-12 1806 448.365)" fill="#f1ba2e" /><rect x="1758" y="608.565" width="361.914" height="18.666" rx="5" transform="rotate(-12 1758 608.565)" fill="#222222" /><path fill="none" d="M-205 877h410v200h-410z"/><rect x="-190.165" y="957.781" width="382.478" height="91.319" rx="7" transform="rotate(-12 -190.165 957.781)" stroke="#f8f9fa" stroke-width="2"/><rect x="-204.725" y="1036.77" width="378.401" height="41" rx="8" transform="rotate(-12 -204.725 1036.77)" fill="#f8f9fa"/><path fill="none" d="M-293 1547h585v219h-585z"/>
    <path fill="none" d="M1715 1097h410v200h-410z"/><rect x="1729.84" y="1177.78" width="382.478" height="91.319" rx="7" transform="rotate(-12 1729.84 1177.78)" stroke="#f8f9fa" stroke-width="2"/><rect x="1715.28" y="1256.77" width="378.401" height="41" rx="8" transform="rotate(-12 1715.28 1256.77)" fill="#f8f9fa"/><defs>
    
</defs></svg>