<svg xmlns="http://www.w3.org/2000/svg" fill-rule="evenodd" viewBox="0 0 5215.13 1613.3" shape-rendering="geometricPrecision" text-rendering="geometricPrecision" image-rendering="optimizeQuality" clip-rule="evenodd"><defs><linearGradient id="id0" x1="4591.23" x2="4591.23" y1="816.32" y2="-76.52" gradientUnits="userSpaceOnUse"><stop offset="0" stop-color="#ED6E1E"/><stop offset=".5098" stop-color="#F68B1A"/><stop offset="1" stop-color="#FFA915"/></linearGradient></defs><g id="Слой_x0020_1"><path d="M574.55 1071.3c0-22.88 3.23-42.04 9.71-57.95 6.7-15.67 15.66-28.6 27.35-38.3 11.68-9.72 25.36-16.68 40.79-21.15 15.68-4.23 32.33-6.47 50.24-6.47 17.17 0 33.33 2.23 48.51 6.47 15.41 4.47 28.85 11.43 40.53 21.15 11.7 9.7 20.89 22.63 27.61 38.3 6.98 15.91 10.19 35.07 10.19 57.95 0 21.89-3.22 40.54-10.19 56.22-6.72 15.41-15.91 28.35-27.61 38.55-11.69 10.19-25.12 17.66-40.53 22.13-15.18 4.73-31.34 6.97-48.51 6.97-17.91 0-34.56-2.23-50.24-6.97-15.42-4.48-29.11-11.94-40.79-22.13-11.7-10.2-20.65-23.14-27.35-38.55-6.48-15.68-9.71-34.33-9.71-56.22z" fill="#FF8500" fill-rule="nonzero"/><path d="M82.31 1314.45C30.2 1262.88 0 1190.69 0 1109.13c0-84.7 28.57-155.06 76.16-204.91 49.45-51.78 118.96-81.05 197.94-81.05 74.95 0 133.46 27.04 174.25 71.19 43.68 47.27 66.23 113.75 66.23 187.09 0 17.21.08 41.01.08 41.35l.25 24.12H149.35c5.84 33.25 20.11 59.34 39.81 78.24 27.04 25.96 64.91 39.01 105.7 39.01 76.73 0 132.09-51.83 132.25-51.98l22.17-20.32 14.76 26.21 39.55 70.2 9.22 16.35-13.8 12.83c-.23.21-80.88 77.82-210.08 77.82-84.23 0-155.69-30.45-206.62-80.83zm907.41-287.22l18.32-21.37.21-.19 145.92-166.41 7.86-8.95h174.77l-38.16 41.83-185.89 203.89 200.95 270.75 29.6 39.86h-168.42l-7.8-10.82-152.15-211.21-21.81 15.26v206.78H851.35v-169.59c9.44-12.38 17.55-26.1 24.33-41.12 34.3-74.46 26.65-184.33-24.33-250.68V619.24h141.77v354.22l-.11 1.47-3.29 52.29zm691.3 340.33l5.01 19.1h111.68v-371.67c0-16.21-1.08-31.38-3.26-45.51-2.21-14.42-5.64-27.73-10.27-39.96-4.67-12.44-10.62-23.88-17.81-34.31l.02-.02c-7.37-10.67-15.94-20.15-25.64-28.37-9.54-8.16-20.47-15.22-32.67-21.19-11.87-5.8-24.95-10.51-39.09-14.11-13.69-3.47-28.46-6.07-44.32-7.78-15.83-1.7-32.55-2.54-50.15-2.54-17.56 0-35.02 1.16-52.38 3.51-17.1 2.3-33.8 5.8-50.1 10.46l.01.02c-16.33 4.62-31.44 9.6-45.24 14.84-14.57 5.56-28.43 11.64-41.52 18.2l-22.5 11.29 11.07 21.98 31.78 63.07 11.45 22.72 23.45-11.11c9.8-4.63 20.48-9.22 32-13.72 11.23-4.4 22.25-8.28 32.98-11.64 10.36-3.22 21.33-5.65 32.89-7.29 11.45-1.63 23.49-2.44 36.11-2.44 7.51 0 14.57.41 21.16 1.19 6.69.79 12.69 1.92 17.94 3.33v-.01c4.66 1.34 8.91 3.03 12.78 5.1 3.61 1.94 6.91 4.31 9.9 7.05 3.05 2.83 5.69 6.01 7.92 9.54 2.46 3.93 4.58 8.45 6.35 13.57 1.85 5.41 3.32 11.76 4.34 19.02 1.02 7.12 1.53 15.36 1.53 24.68v7.7l-66.35 2.27v.01c-41.09 1.33-77.16 5.88-108.13 13.69-32.45 8.17-59.59 19.94-81.33 35.33-22.65 15.95-39.75 35.55-51.27 58.78-11.36 22.92-17.04 48.83-17.04 77.73 0 14.17 1.15 27.59 3.42 40.22 2.3 12.78 5.87 24.86 10.65 36.2l-.08.03c4.61 10.88 10.27 21.1 16.96 30.61 6.77 9.62 14.39 18.15 22.8 25.58 8.41 7.39 17.66 13.87 27.75 19.41 9.79 5.39 20.34 9.84 31.61 13.36l-.02.06c10.94 3.47 22.47 6.1 34.58 7.85 11.89 1.7 24.16 2.56 36.78 2.56 10.43 0 20.99-.47 31.69-1.39l.01.1c9.62-.81 19.08-2.15 28.4-3.97l.01.03c9.28-1.73 17.99-3.97 26.13-6.65l-.01-.03c8.5-2.81 16.58-6.16 24.25-9.97 7.55-3.79 14.91-8.11 21.99-12.96 6.93-4.74 13.55-9.97 19.77-15.63 1.67-1.52 3.33-3.08 5.02-4.7l7.02 26.76zm-140.83-89.81c-10.58 0-19.77-1.23-27.63-3.67-7.22-2.25-13.57-5.64-19.07-10.13-4.62-3.8-8.14-8.81-10.55-15.05-2.86-7.39-4.28-16.72-4.28-28.04 0-6.53.51-12.44 1.5-17.66 1.03-5.47 2.53-10.51 4.45-15.05 1.6-3.79 3.91-7.46 6.85-11.04 2.96-3.57 6.63-6.96 10.94-10.09l-.03-.02c4.48-3.2 9.82-6.11 16.05-8.73 6.58-2.79 14.26-5.26 23.01-7.36l-.01-.02c9.51-2.27 19.94-4.12 31.27-5.52 11.58-1.42 24.49-2.45 38.79-3.05l43.93-1.94v19.29c0 11.03-.76 21.02-2.27 29.95-1.47 8.74-3.72 16.91-6.69 24.47-2.94 7.41-6.39 14.1-10.33 20-3.87 5.84-8.22 11.02-13.07 15.51l-.11.1c-4.88 4.57-10.21 8.57-15.98 11.98-5.95 3.51-12.33 6.44-19.1 8.73-7.21 2.42-14.76 4.25-22.65 5.5-7.72 1.21-16.04 1.82-25.02 1.82zM2576 1367.56l-7.02-26.76c-1.69 1.61-3.36 3.18-5.04 4.7-6.2 5.66-12.81 10.88-19.75 15.63-7.09 4.84-14.45 9.17-21.99 12.96-7.66 3.8-15.71 7.12-24.18 9.92-8.34 2.74-17.04 5.01-26.09 6.73-9.08 1.75-18.69 3.08-28.85 3.94-9.83.84-20.28 1.29-31.37 1.29-12.62 0-24.89-.88-36.76-2.59h-.1c-11.85-1.72-23.31-4.35-34.4-7.82-11.16-3.52-21.74-7.99-31.66-13.44-10.09-5.53-19.35-11.99-27.77-19.39-8.42-7.42-16.02-15.96-22.8-25.59-6.68-9.49-12.35-19.72-16.95-30.6-4.69-11.09-8.22-23.17-10.57-36.23-2.27-12.63-3.43-26.04-3.43-40.22 0-28.9 5.69-54.81 17.06-77.72 11.51-23.22 28.61-42.8 51.23-58.79 21.78-15.38 48.93-27.11 81.36-35.26 31.01-7.8 67.05-12.36 108.1-13.77l66.37-2.27v-7.7c0-9.32-.53-17.56-1.53-24.68-.98-6.91-2.49-13.27-4.46-19.02l.09-.03c-1.75-5.12-3.86-9.62-6.32-13.53-2.22-3.53-4.87-6.71-7.94-9.54-2.99-2.76-6.29-5.13-9.89-7.07-3.73-2.03-8.06-3.72-12.99-5.07-5.32-1.46-11.18-2.58-17.52-3.33-6.63-.79-13.77-1.19-21.36-1.19-12.62 0-24.67.79-36.11 2.44-11.56 1.62-22.54 4.07-32.91 7.29-10.69 3.34-21.68 7.22-32.87 11.58-11.56 4.53-22.29 9.13-32.11 13.78l-23.45 11.11-11.45-22.72-31.77-63.07-11.07-21.98 22.5-11.29c13.03-6.52 26.84-12.57 41.35-18.09 14.03-5.36 29.21-10.37 45.41-14.97 16.35-4.65 33.1-8.15 50.24-10.46 17.3-2.35 34.73-3.51 52.24-3.51 17.6 0 34.31.84 50.15 2.54 15.85 1.7 30.62 4.28 44.31 7.78 14.11 3.57 27.14 8.29 39 14.09 12.1 5.9 23.05 13.02 32.78 21.31 9.91 8.44 18.46 17.83 25.61 28.18l-.08.05c7.23 10.44 13.19 21.9 17.9 34.37 4.61 12.23 8.03 25.56 10.26 39.96 2.18 14.12 3.27 29.3 3.27 45.51v371.67h-111.69l-5-19.1zm-140.83-89.81c8.98 0 17.31-.6 25.01-1.81 7.89-1.24 15.44-3.09 22.65-5.51 6.73-2.27 13.06-5.17 18.96-8.66 5.82-3.44 11.24-7.5 16.23-12.15 4.83-4.5 9.2-9.69 13.09-15.53 3.95-5.91 7.39-12.59 10.32-19.98 3-7.57 5.24-15.73 6.71-24.47 1.5-8.94 2.25-18.92 2.25-29.95v-19.29l-43.93 1.94c-14.39.64-27.39 1.68-39.05 3.11-11.27 1.38-21.64 3.21-31.11 5.48-8.62 2.06-16.3 4.54-22.98 7.36-6.33 2.65-11.67 5.58-16.04 8.75-4.17 3.03-7.83 6.42-10.89 10.14-2.91 3.53-5.2 7.21-6.78 10.99-1.93 4.54-3.42 9.57-4.46 15.05h-.02c-.97 5.21-1.47 11.11-1.47 17.66 0 11.32 1.42 20.65 4.27 28.04 2.41 6.23 5.93 11.25 10.56 15.05 5.49 4.5 11.85 7.88 19.07 10.13 7.84 2.44 17.05 3.67 27.63 3.67zm446.77 108.91h-116.68V619.25h142.79v767.41h-26.11zm612.76-279.04c0 22.02-1.5 43.08-4.48 63.17-2.99 20.13-7.47 39.08-13.49 56.75-6.05 17.83-13.5 34.37-22.33 49.62-9.03 15.56-19.34 29.56-31 42.02-11.55 12.38-24.57 23.44-38.93 33.15-14.05 9.48-29.37 17.51-45.9 24.04-16.55 6.53-34 11.44-52.3 14.68-18.42 3.25-37.47 4.91-57.05 4.91-18.68 0-36.77-1.68-54.25-4.94-17.56-3.29-34.35-8.19-50.38-14.65-16.21-6.53-31.34-14.57-45.4-24.09-14.04-9.53-27-20.55-38.79-33-11.69-12.34-22.15-26.29-31.43-41.82-9.04-15.13-16.77-31.64-23.16-49.51-6.5-18.13-11.32-37.19-14.47-57.13-3.13-19.93-4.72-41.01-4.72-63.19 0-21.93 1.49-42.87 4.47-62.81 3.01-20.14 7.51-38.97 13.5-56.41 6.05-17.65 13.5-34.04 22.25-49.13 8.89-15.3 19.11-29.2 30.62-41.67 11.5-12.45 24.45-23.55 38.88-33.26 14.26-9.61 29.71-17.67 46.35-24.12 16.65-6.48 34.1-11.25 52.37-14.39 18.15-3.1 37.14-4.62 57.04-4.62 18.54 0 36.67 1.57 54.34 4.77 17.54 3.18 34.31 7.93 50.28 14.33 16.21 6.49 31.33 14.5 45.38 24.03 14.05 9.52 26.99 20.56 38.83 33.07 11.72 12.38 22.19 26.22 31.36 41.51 8.99 14.94 16.73 31.31 23.2 49.1 6.5 17.8 11.33 36.68 14.48 56.61 3.15 19.85 4.72 40.86 4.72 63zm-382.22 0c0 30.38 2.61 56.63 7.82 78.73 4.95 20.99 12.23 38.33 21.83 52.06 8.62 12.31 19.92 21.54 33.86 27.67 14.85 6.52 33.24 9.79 55.09 9.79 21.92 0 40.27-3.26 55.07-9.78 13.88-6.12 25.06-15.32 33.55-27.59 9.41-13.6 16.56-30.92 21.44-51.96 5.14-22.1 7.7-48.41 7.7-78.92 0-30.32-2.61-56.49-7.83-78.51-4.97-20.95-12.18-38.07-21.62-51.29-8.58-12-19.88-21.04-33.85-27.06-14.95-6.43-33.41-9.66-55.32-9.66-21.96 0-40.42 3.23-55.31 9.66-13.89 6-25.05 14.97-33.42 26.87-9.31 13.24-16.43 30.38-21.33 51.39-5.13 21.98-7.7 48.19-7.7 78.6zm930.19-252.11v74.09l-22.75 2.88-58.79 7.45c1.88 4.13 3.67 8.42 5.34 12.85 3.68 9.81 6.47 20.34 8.35 31.52 1.85 11.04 2.8 22.34 2.8 33.83 0 13.1-1.13 25.8-3.35 38.09-2.2 12.22-5.58 24.08-10.11 35.57-4.62 11.73-10.42 22.67-17.38 32.81-6.97 10.12-15.09 19.47-24.39 27.98-9.19 8.42-19.52 15.91-30.92 22.49-11.26 6.5-23.54 12.07-36.77 16.73-13.02 4.59-27.21 8.06-42.56 10.38-15.2 2.32-30.99 3.46-47.35 3.46-3.18 0-12.28-.19-21.51-.39l-.92-.02c-4.13-.08-8.02-.28-11.7-.59l-.19-.02c-2.42 1.53-4.73 3.08-6.98 4.64l.04.05c-2.39 1.66-4.35 3.16-5.82 4.44-1.63 1.41-3.25 3.01-4.85 4.79-1.16 1.26-2.33 2.82-3.49 4.62-1.18 1.82-2.22 3.77-3.2 5.84-.59 1.24-1.05 2.67-1.37 4.25-.35 1.72-.53 3.62-.53 5.7 0 1.79.16 3.25.48 4.32.09.34 0 .32.06.4.62.76 1.33 1.46 2.11 2.04.88.65 1.98 1.24 3.32 1.78l-.03.03c1.97.78 4.37 1.49 7.18 2.12 3.18.72 6.44 1.24 9.79 1.58 4.22.43 8.54.74 12.84.95 3.56.16 8.14.26 13.73.26h87.65c16.51 0 31.96 1.01 46.38 3.01 14.74 2.05 28.23 5.16 40.44 9.32 12.11 4.11 23.23 9.03 33.31 14.7 10.43 5.88 19.76 12.57 27.96 20.06 8.15 7.45 15.23 15.65 21.24 24.58 5.98 8.9 10.85 18.57 14.61 29.02 3.48 9.71 6.06 19.66 7.74 29.8 1.77 10.59 2.62 21.12 2.62 31.54 0 15.16-1.54 29.71-4.62 43.68-3.13 14.08-7.84 27.43-14.17 40.06-6.36 12.71-14.46 24.48-24.27 35.3-9.62 10.62-20.88 20.27-33.74 28.93-12.77 8.61-26.99 16.05-42.61 22.38l.02.03c-15.03 6.09-31.94 11.31-50.61 15.72-18.18 4.29-37.87 7.48-59.02 9.57-21.36 2.11-43.82 3.17-67.37 3.17-18.34 0-35.86-.86-52.61-2.58-16.78-1.75-32.34-4.34-46.66-7.81-14.73-3.57-28.27-7.99-40.58-13.23-12.78-5.42-24.34-11.78-34.65-18.96-10.39-7.26-19.58-15.36-27.57-24.36-7.95-8.95-14.62-18.78-20.07-29.51-5.41-10.64-9.44-21.76-12.06-33.33-2.61-11.55-3.94-23.67-3.94-36.35 0-10.74 1.01-21 2.99-30.78 2.01-9.96 5.09-19.35 9.22-28.17 3.88-8.32 8.47-16.22 13.82-23.64 5.32-7.41 11.27-14.2 17.88-20.3 6.71-6.22 13.78-11.75 21.22-16.6 7.4-4.83 15.38-9.16 23.97-12.99l3.13-1.36c-1.04-1.33-2.05-2.7-3.04-4.08-5.98-8.46-10.51-17.58-13.52-27.27-2.99-9.62-4.49-19.69-4.49-30.16 0-11.91 1.77-23.17 5.23-33.73 3.51-10.7 8.87-20.69 16.05-29.93 6.05-7.81 13.58-15.42 22.56-22.79-2.57-1.86-5.06-3.8-7.47-5.8-6.79-5.6-13.18-11.72-19.1-18.27-5.81-6.47-11.14-13.36-15.91-20.63-4.69-7.15-8.87-14.69-12.56-22.63-3.76-8.1-6.87-16.31-9.35-24.6-2.48-8.32-4.43-16.89-5.77-25.79-1.34-8.9-2.05-17.82-2.05-26.7 0-14.68 1.21-28.88 3.55-42.55 2.41-14.05 5.98-27.18 10.65-39.41 4.73-12.37 10.74-23.97 17.97-34.76 7.25-10.82 15.65-20.62 25.15-29.44 9.56-8.84 20.35-16.66 32.32-23.47 11.85-6.74 24.54-12.34 38.1-16.82 13.52-4.48 28.18-7.84 43.93-10.06 15.47-2.17 31.87-3.26 49.13-3.26 6.25 0 13.04.23 20.28.71 6.49.44 13.54 1.14 21.14 2.09 7.03.88 13.55 1.94 19.56 3.14 4.92.97 9.48 2.05 13.69 3.18h203.22v25.19zm-403.63 588.84c0 4.18.38 8.09 1.12 11.72.76 3.74 1.83 7.14 3.17 10.22l.03-.02c1.27 2.86 2.89 5.5 4.89 7.91 2.17 2.6 4.79 5.02 7.88 7.24 3.33 2.4 7.43 4.65 12.27 6.75 5.13 2.22 11.04 4.2 17.69 5.94 6.87 1.79 14.56 3.09 23.02 3.95 8.71.87 18.81 1.3 30.22 1.3 29.3 0 54.66-2.03 76.04-6.11 20.21-3.85 36.62-9.41 49.2-16.67 11.5-6.64 19.97-14.43 25.36-23.39 5.29-8.75 7.92-19.2 7.92-31.31 0-5.98-.36-11.05-1.06-15.21-.62-3.57-1.53-6.73-2.75-9.46-.85-1.91-1.93-3.55-3.22-4.91-1.39-1.48-3.23-2.85-5.45-4.09-2.84-1.55-6.29-2.93-10.34-4.11-4.87-1.4-10.24-2.49-16.1-3.21-6.63-.83-14.24-1.48-22.81-1.93-7.89-.41-17.4-.6-28.51-.6h-87.67c-5.14 0-10.12.25-14.97.76-4.83.51-10.28 1.36-16.28 2.51-4.65.89-9.01 2.17-13.05 3.79-4.32 1.73-8.35 3.82-12.05 6.21-3.36 2.17-6.56 4.87-9.53 8.07-3.1 3.31-5.84 7.03-8.19 11.11-2.08 3.63-3.72 8.08-4.88 13.3-1.29 5.8-1.94 12.55-1.94 20.26zm45.87-426.21c0 15.08 1.8 27.88 5.39 38.42 3.17 9.32 7.76 16.84 13.7 22.56 6.2 5.96 13.78 10.45 22.71 13.47 9.76 3.3 21.42 4.92 35.02 4.92 13.84 0 25.6-1.62 35.25-4.89 8.63-2.91 15.78-7.2 21.39-12.8 5.72-5.71 10.09-13.34 13.14-22.89 3.44-10.82 5.16-24.17 5.16-40.06 0-16.48-1.79-30.45-5.39-41.96-3.19-10.18-7.73-18.29-13.62-24.32-5.86-6.02-13.18-10.58-21.93-13.66-9.68-3.4-21.34-5.12-35.03-5.12-13.3 0-24.73 1.76-34.28 5.25-8.71 3.2-16.1 7.96-22.12 14.27-6.03 6.31-10.69 14.65-13.92 25.01-3.66 11.61-5.47 25.56-5.47 41.79zM1988 1361.89c-45.9-29.75-82.58-82.63-82.58-175.85V977.05h-65.13V852.3h68.09V693.86h140.54V852.3h120.38v124.75h-120.38v198.14c0 40.5 13.06 62.55 29.52 74.22 16.82 11.94 38.3 14.39 53.16 14.39 10.87 0 15.22-.67 15.22-.67l31.36-10.45v137.65l-19.23 3.84c-.04.01-16.55 2.45-38.21 2.45-35.14 0-87.84-5.6-132.75-34.71zM190.61 975.74c-14.7 12.81-26.43 29.97-34.07 51.13h209.71c-4.19-22.42-13-39.87-24.99-52.54h-.09c-17.22-18.2-41.78-27.14-69.06-27.14-31.68 0-60.05 9.85-81.5 28.55z" fill="#30539c" fill-rule="nonzero"/><circle cx="4630.7" cy="521.41" r="486.92" fill="white"/><path d="M5052.47 120.6c-51.02-42.33-110.72-72.72-178.04-92.28-137.78-37.16-293.28-38.36-430.95 0-67.31 19.56-125.9 49.95-176.94 92.28-51.03 42.34-91.19 98.78-120.49 167.17-59.58 136.15-60.51 362.17 0 498.27 29.3 67.3 69.46 123.74 120.49 168.25 107.39 93.66 248.84 127.01 388.62 127.01 78.16 0 150.88-9.78 219.27-30.4 26.14-7.58 51.11-17.13 74.89-28.58-31.81 53.55-70.16 102.78-113.95 146.57-40.46 40.47-85.58 76.28-134.45 106.6 111.65-36.72 211.72-99.29 293.02-180.6 115.88-115.87 193.73-269.9 212.82-441.27 25.88-183.09-3.65-408.02-154.28-533.02zm-136.12 540.48c17.51 0 31.73 14.2 31.73 31.73 0 17.52-14.21 31.74-31.73 31.74h-431.77c-21.81 0-38.3-4.43-50.44-12.01-9.27-5.79-15.98-13.31-20.52-22.19-4.4-8.61-6.4-17.69-6.4-27.02 0-19.09 8.48-39.94 20.6-59.36l12.34-19.72-92.91-299.92-.22-.78c-2.09-5.98-3.96-9.27-5.87-10.49-2.48-1.56-7.95-2.1-16.09-2.1h-43.05c-17.52 0-31.74-14.21-31.74-31.74 0-17.52 14.21-31.73 31.74-31.73h43.05c19.62 0 35.63 3.08 50.05 12.27 14.4 9.16 24.55 22.8 31.73 43.42.34.83.65 1.69.9 2.56l.07.18c10.38-2.63 22.3-3.56 35.81-3.58l438.47-.76c22.05-.04 41.21 3.98 57.08 12.16 17.64 9.09 30.79 22.79 38.99 41.19 7.53 16.91 10.78 36.48 11.8 56.86.91 18.39.04 37.16-.98 54.9-.3 5.41-.42 8.94-.53 12.38-.74 23.33-1.4 44.25-16.44 68.69-10.51 17.08-24.77 30.89-42.8 41.4-16.82 9.81-36.65 16.46-59.47 19.97l-.01-.08-.49.08-376.92 51.25-10.68 17.08c-5.36 8.58-9.37 16.61-10.57 22.56 2.97.68 7.39 1.07 13.5 1.07h431.77zm-360.8-335l78.38-.85 3.49 211.15-78.21 11.06-3.66-221.36zm-20.82 224.69l-36.92 4.99-67.53-225.94c-.58-1.92-2.05-2.52-3.49-2.67l-.39-1.24c3.14-.25 9.16-.35 17.22-.35l87.4.56 3.71 224.65zm123.73-225.59l74.58-.12 3.27 198.25-74.4 9.76-3.44-207.88zm195.69-.35l27.94-.04c11.81-.02 21.25 1.71 28.06 5.22 4.67 2.42 8.13 5.97 10.23 10.69 3.91 8.76 5.69 20.76 6.35 34.04.76 15.28-.05 32.26-.98 48.47-.2 3.56-.37 8.79-.53 13.86-.45 14.26-.86 27.04-7.25 37.44-5.04 8.19-11.87 14.8-20.5 19.83-9.82 5.73-22.21 9.74-37.15 12.03l.01.06-3.17.43-3.02-182.03zm-21.39 185.35l-71.88 9.78-3.21-194.96 72.02-.12 3.07 185.3zm-1.68 239.8c23.82 0 45.41 9.67 61.01 25.28 15.64 15.62 25.29 37.19 25.29 61.02 0 23.83-9.66 45.41-25.29 61.03-15.61 15.61-37.19 25.27-61.01 25.27s-45.41-9.67-61.03-25.27c-15.62-15.63-25.26-37.2-25.26-61.03s9.66-45.41 25.26-61.02c15.63-15.62 37.21-25.28 61.03-25.28zm16.14 70.16c4.13 4.13 6.68 9.84 6.68 16.14 0 6.31-2.55 12.02-6.68 16.14-4.13 4.13-9.84 6.68-16.14 6.68-6.31 0-12.01-2.55-16.14-6.68-4.11-4.12-6.68-9.84-6.68-16.14 0-6.31 2.56-12.01 6.68-16.14 4.13-4.12 9.84-6.68 16.14-6.68 6.31 0 12.01 2.56 16.14 6.68zm-336.23-73.57c24.05 0 45.84 9.76 61.61 25.53 15.78 15.79 25.54 37.57 25.54 61.63 0 24.06-9.76 45.86-25.54 61.63-15.77 15.77-37.56 25.53-61.61 25.53-24.07 0-45.85-9.76-61.64-25.53-15.76-15.77-25.53-37.57-25.53-61.63 0-24.06 9.77-45.84 25.53-61.63 15.79-15.77 37.57-25.53 61.64-25.53zm16.74 70.41c4.27 4.28 6.93 10.2 6.93 16.74 0 6.54-2.66 12.47-6.93 16.74-4.28 4.28-10.22 6.93-16.74 6.93-6.55 0-12.47-2.65-16.75-6.93-4.28-4.27-6.95-10.2-6.95-16.74 0-6.54 2.66-12.46 6.95-16.74 4.28-4.28 10.2-6.95 16.75-6.95 6.52 0 12.46 2.66 16.74 6.95z" fill="url(#id0)" fill-rule="nonzero"/></g></svg>