<?xml version="1.0" encoding="UTF-8"?>
<!DOCTYPE svg PUBLIC "-//W3C//DTD SVG 1.0//EN" "http://www.w3.org/TR/2001/REC-SVG-20010904/DTD/svg10.dtd">
<!-- Creator: CorelDRAW X8 -->
<svg xmlns="http://www.w3.org/2000/svg" xml:space="preserve" width="211.842mm" height="15.894mm" version="1.0" style="shape-rendering:geometricPrecision; text-rendering:geometricPrecision; image-rendering:optimizeQuality; fill-rule:evenodd; clip-rule:evenodd"
viewBox="0 0 21184 1589"
 xmlns:xlink="http://www.w3.org/1999/xlink">
 <defs>
  <style type="text/css">
   <![CDATA[
    .fil0 {fill:white}
    .fil1 {fill:white;fill-opacity:0.301961}
   ]]>
  </style>
 </defs>
 <g id="Слой_x0020_1">
  <metadata id="CorelCorpID_0Corel-Layer"/>
  <g id="_2174430700272">
   <path class="fil0" d="M9585 1345c-2975,-233 -5853,-783 -9169,-705 -316,7 -636,20 -960,38l0 931 22272 0 0 -1144c-1049,238 -2114,446 -3205,605 -2893,423 -5964,508 -8938,275z"/>
   <path class="fil1" d="M21155 1175c-2002,-30 -4131,-47 -6474,-43 -2737,4 -5765,36 -8948,84 1311,80 2684,162 4071,225 3421,71 6908,22 10225,-154 1,0 1,0 1,0 378,-35 753,-73 1125,-112z"/>
   <path class="fil1" d="M5234 604c-2276,-342 -4076,-484 -5778,-584l0 658c324,-18 644,-31 960,-38 3316,-78 6194,472 9169,705 317,25 636,46 955,64 -1869,-223 -3705,-564 -5306,-805z"/>
   <path class="fil1" d="M16714 1408l1 0 0 0 0 0 0 0 1 0 319 -27c1597,-139 3156,-319 4693,-525l0 -375 0 -83c-1413,56 -2803,123 -4152,210 -2087,133 -4078,312 -6294,530 -1292,127 -3205,84 -4168,181 -962,98 -844,86 -1281,130 3647,102 7351,252 10881,-41l1 0 0 0 0 0 0 0 1 0 -2 0z"/>
  </g>
 </g>
</svg>
