<?xml version="1.0" encoding="UTF-8"?>
<!DOCTYPE svg PUBLIC "-//W3C//DTD SVG 1.0//EN" "http://www.w3.org/TR/2001/REC-SVG-20010904/DTD/svg10.dtd">
<!-- Creator: CorelDRAW X8 -->
<svg xmlns="http://www.w3.org/2000/svg" xml:space="preserve" width="211.873mm" height="20.1468mm" version="1.0" style="shape-rendering:geometricPrecision; text-rendering:geometricPrecision; image-rendering:optimizeQuality; fill-rule:evenodd; clip-rule:evenodd"
viewBox="0 0 21187 2015"
 xmlns:xlink="http://www.w3.org/1999/xlink">
 <defs>
  <style type="text/css">
   <![CDATA[
    .fil2 {fill:white}
    .fil0 {fill:white;fill-opacity:0.101961}
    .fil1 {fill:white;fill-opacity:0.200000}
   ]]>
  </style>
 </defs>
 <g id="Слой_x0020_1">
  <metadata id="CorelCorpID_0Corel-Layer"/>
  <path class="fil0" d="M21185 2005c-1335,-14 -2196,-400 -4313,-881 -1412,-321 -3702,-433 -6869,-336 4260,-1081 8000,-1043 11182,114m0 1103l0 0 0 0z"/>
  <path class="fil0" d="M19694 465c-2609,477 -4796,767 -6562,869 -1765,103 -3887,56 -6365,-139 705,-16 2481,-291 5328,-826 2848,-535 5380,-503 7599,96z"/>
  <path id="Path-4" class="fil1" d="M5782 1245c-1247,328 -3428,501 -5779,169l0 -1174c2468,618 4394,954 5779,1005z"/>
  <path class="fil2" d="M21187 1034c-833,-282 -1437,-468 -1814,-557 -847,-200 -1625,-271 -2180,-317 -578,-49 -1832,-35 -2779,26 -378,24 -848,78 -1410,161 -571,90 -963,158 -1175,202 -398,83 -1113,257 -1335,307 -778,173 -1342,347 -1893,444 -976,173 -1461,197 -2277,228 -729,-16 -1268,-40 -1619,-73 -595,-56 -1285,-183 -1679,-249 -742,-124 -1749,-369 -3022,-736l-4 -470 21187 0 0 1034z"/>
 </g>
</svg>
