<svg width="126" height="46" xmlns="http://www.w3.org/2000/svg"><path d="M118 37h8v-7.597h-8V37zm.35-11.486h7.352V1h-7.353v24.514zM17.807 29.486c-1.117 1.202-2.545 1.803-4.285 1.803-1.707 0-3.12-.609-4.235-1.828-1.117-1.218-1.675-3.093-1.675-5.628 0-2.435.558-4.263 1.675-5.481 1.115-1.218 2.528-1.828 4.235-1.828 1.74 0 3.168.61 4.285 1.828 1.116 1.218 1.675 3.061 1.675 5.53 0 2.534-.56 4.402-1.675 5.604zM14.073 11.21c-2.712 0-5.304.812-7.481 2.2.288-.798.535-1.469.708-1.915.993-2.563 3.313-3.846 6.128-4.1l11.374-1.023V.042L17.774.83C5.632 1.98.282 4.913.282 21.333c0 10.486 5.444 15.298 13.266 15.298s13.003-4.816 13.003-12.71c0-7.895-5.297-12.71-12.478-12.71zm62.79 18.28c-1.116 1.218-2.529 1.827-4.236 1.827-1.74 0-3.168-.609-4.285-1.827-1.116-1.219-1.675-3.062-1.675-5.53 0-2.535.56-4.402 1.675-5.604 1.117-1.202 2.545-1.803 4.285-1.803 1.707 0 3.12.608 4.236 1.827 1.116 1.218 1.674 3.094 1.674 5.628 0 2.436-.558 4.263-1.674 5.482zm-2.95-18.28c-3.388 0-5.979 1.269-7.77 3.345v-2.828H59.86V45.73h6.806V33.845c1.76 1.742 4.174 2.786 7.247 2.786 7.181 0 11.691-5.69 11.691-12.71 0-7.02-4.51-12.711-11.691-12.711zm31.912.517L99.912 28.16l-6.08-16.432h-7.403l9.976 24.664c-1.218 2.02-2.96 2.607-5.253 2.607h-2.75v6.223h3.503c4.886 0 9.234-2.705 11.496-8.678l9.334-24.816h-6.91zm-68.234 9.444c.14-2.377 2.44-5.002 5.85-5.002 3.41 0 5.529 2.625 5.67 5.002H37.59zm18.202 2.677c0-7.068-3.778-12.815-12.288-12.815S30.43 16.78 30.43 23.848c0 7.441 5.097 13.099 14.762 13.099 4.97 0 8.354-1.916 8.354-1.916v-5.2s-2.676 1.595-7.263 1.595c-5.106 0-8.297-2.31-8.684-5.382h18.09c.066-.602.104-1.57.104-2.196z" fill="#422498" fill-rule="evenodd"/></svg>