<?xml version="1.0" encoding="UTF-8"?>
<!DOCTYPE svg PUBLIC "-//W3C//DTD SVG 1.0//EN" "http://www.w3.org/TR/2001/REC-SVG-20010904/DTD/svg10.dtd">
<!-- Creator: CorelDRAW X8 -->
<svg xmlns="http://www.w3.org/2000/svg" xml:space="preserve" width="45.979mm" height="45.979mm" version="1.0" style="shape-rendering:geometricPrecision; text-rendering:geometricPrecision; image-rendering:optimizeQuality; fill-rule:evenodd; clip-rule:evenodd"
viewBox="0 0 4598 4598"
 xmlns:xlink="http://www.w3.org/1999/xlink">
 <defs>
  <style type="text/css">
   <![CDATA[
    .fil0 {fill:url(#id0);fill-rule:nonzero}
   ]]>
  </style>
  <linearGradient id="id0" gradientUnits="userSpaceOnUse" x1="4375.55" y1="1312.57" x2="222.35" y2="3285.33">
   <stop offset="0" style="stop-opacity:1; stop-color:#F4AB37"/>
   <stop offset="1" style="stop-opacity:1; stop-color:#FC7851"/>
  </linearGradient>
 </defs>
 <g id="Слой_x0020_1">
  <metadata id="CorelCorpID_0Corel-Layer"/>
  <path class="fil0" d="M2299 4598c-635,0 -1210,-257 -1626,-673 -416,-416 -673,-991 -673,-1626 0,-635 257,-1210 673,-1626 416,-416 991,-673 1626,-673 635,0 1210,257 1626,673 416,416 673,991 673,1626 0,635 -257,1210 -673,1626 -416,416 -991,673 -1626,673zm-1555 -744c398,398 948,644 1555,644 607,0 1157,-246 1555,-644 398,-398 644,-948 644,-1555 0,-607 -246,-1157 -644,-1555 -398,-398 -948,-644 -1555,-644 -607,0 -1157,246 -1555,644 -398,398 -644,948 -644,1555 0,607 246,1157 644,1555z"/>
 </g>
</svg>
