<svg width="248" height="245" viewBox="0 0 248 245" xmlns="http://www.w3.org/2000/svg"><title>Group 2</title><g fill="#c9c9c9" fill-rule="nonzero" opacity=".5"><path d="M140.5 226c58.818 0 106.5-47.682 106.5-106.5S199.318 13 140.5 13 34 60.682 34 119.5 81.682 226 140.5 226zm0 1C81.13 227 33 178.87 33 119.5S81.13 12 140.5 12 248 60.13 248 119.5 199.87 227 140.5 227z"/><path d="M122.5 244c58.818 0 106.5-47.682 106.5-106.5S181.318 31 122.5 31 16 78.682 16 137.5 63.682 244 122.5 244zm0 1C63.13 245 15 196.87 15 137.5S63.13 30 122.5 30 230 78.13 230 137.5 181.87 245 122.5 245z"/><path d="M107.5 214c58.818 0 106.5-47.682 106.5-106.5S166.318 1 107.5 1 1 48.682 1 107.5 48.682 214 107.5 214zm0 1C48.13 215 0 166.87 0 107.5S48.13 0 107.5 0 215 48.13 215 107.5 166.87 215 107.5 215z"/></g></svg>