<?xml version="1.0" encoding="UTF-8"?>
<!DOCTYPE svg PUBLIC "-//W3C//DTD SVG 1.0//EN" "http://www.w3.org/TR/2001/REC-SVG-20010904/DTD/svg10.dtd">
<!-- Creator: CorelDRAW X8 -->
<svg xmlns="http://www.w3.org/2000/svg" xml:space="preserve" width="30mm" height="11mm" version="1.0" style="shape-rendering:geometricPrecision; text-rendering:geometricPrecision; image-rendering:optimizeQuality; fill-rule:evenodd; clip-rule:evenodd"
viewBox="0 0 3000 1100"
 xmlns:xlink="http://www.w3.org/1999/xlink">
 <defs>
  <style type="text/css">
   <![CDATA[
    .fil0 {fill:#DB3727}
    .fil1 {fill:#2B2A29;fill-rule:nonzero}
   ]]>
  </style>
 </defs>
 <g id="Слой_x0020_1">
  <metadata id="CorelCorpID_0Corel-Layer"/>
  <g id="_2174403558080">
   <g>
    <path class="fil0" d="M337 104c58,0 104,22 117,53l0 -42 95 0 0 399 -95 0 0 -42c-13,29 -59,53 -117,53 -106,0 -202,-86 -202,-210 0,-125 96,-211 202,-211zm11 316c49,0 91,-23 103,-53l0 -106c-12,-30 -54,-52 -103,-52 -67,0 -114,43 -114,106 0,62 47,105 114,105l0 0zm311 -305l97 0 0 215c0,57 37,90 84,90 42,0 81,-26 88,-60l0 -245 98 0 0 399 -95 0 0 -41c-11,30 -48,52 -105,52 -82,0 -167,-55 -167,-179l0 -231 0 0zm740 363c-18,26 -54,47 -98,47 -88,0 -130,-51 -130,-137l0 -169 -68 0 0 -31 136 -174 30 0 0 101 126 0 0 104 -126 0 0 148c0,39 23,53 49,53 27,0 43,-10 61,-30l20 88 0 0zm614 -79c38,0 67,30 67,68 0,38 -29,67 -67,67 -38,0 -67,-29 -67,-67 0,-38 29,-68 67,-68l0 0zm404 -174c-15,-11 -33,-16 -52,-16 -45,0 -75,28 -82,65l0 240 -98 0 0 -399 95 0 0 52c11,-37 43,-63 87,-63 30,0 54,14 64,30l-14 91 0 0zm81 -110l98 0 0 215c0,57 36,90 83,90 42,0 81,-26 88,-60l0 -245 98 0 0 399 -95 0 0 -41c-11,30 -48,52 -105,52 -82,0 -167,-55 -167,-179l0 -231 0 0zm0 0l0 0 0 0z"/>
   </g>
   <path class="fil0" d="M1675 195c65,0 117,52 117,116 0,64 -52,116 -117,116 -64,0 -116,-52 -116,-116 0,-64 52,-116 116,-116zm-1 330l0 0zm0 -421c-116,0 -209,94 -209,209 0,123 96,212 209,212 112,0 209,-90 209,-210 0,-118 -94,-211 -209,-211z"/>
  </g>
  <path class="fil1" d="M649 986c55,0 87,-31 87,-66 0,-29 -16,-45 -41,-54 19,-8 36,-23 36,-50 0,-34 -30,-59 -80,-59 -32,0 -61,10 -84,28l16 23c19,-16 45,-22 66,-22 27,0 48,12 48,32 0,23 -20,38 -49,38l-30 0 0 27 30 0c35,0 55,14 55,36 0,25 -26,39 -55,39 -26,0 -51,-10 -73,-29l-16 24c26,22 56,33 90,33zm213 -1c38,0 63,-17 79,-37l0 33 32 0 0 -134c0,-28 -8,-49 -23,-64 -16,-16 -40,-24 -71,-24 -32,0 -55,7 -79,18l9 27c21,-9 41,-16 67,-16 41,0 65,20 65,59l0 7c-20,-5 -39,-9 -67,-9 -56,0 -94,24 -94,71 0,46 41,69 82,69zm6 -26c-29,0 -55,-16 -55,-43 0,-28 23,-45 64,-45 27,0 48,4 64,9l0 20c0,35 -33,59 -73,59zm174 22l32 0 0 -190 125 0 0 190 32 0 0 -219 -189 0 0 219zm401 0l33 0 0 -219 -33 0 0 99c-18,13 -46,21 -69,21 -28,0 -44,-16 -44,-42l0 -78 -33 0 0 83c0,43 30,66 73,66 26,0 57,-11 73,-20l0 90zm171 4c38,0 63,-17 78,-37l0 33 33 0 0 -134c0,-28 -8,-49 -23,-64 -16,-16 -40,-24 -71,-24 -32,0 -55,7 -80,18l10 27c20,-9 41,-16 67,-16 41,0 64,20 64,59l0 7c-19,-5 -39,-9 -66,-9 -56,0 -94,24 -94,71 0,46 41,69 82,69zm6 -26c-30,0 -55,-16 -55,-43 0,-28 23,-45 64,-45 27,0 48,4 64,9l0 20c0,35 -33,59 -73,59zm272 27c41,0 68,-18 90,-42l-22 -20c-17,18 -38,33 -66,33 -46,0 -81,-38 -81,-85 0,-48 34,-86 79,-86 29,0 50,14 67,32l21 -22c-20,-21 -46,-39 -88,-39 -64,0 -112,53 -112,115 0,62 48,114 112,114zm196 -5l33 0 0 -190 79 0 0 -29 -190 0 0 29 78 0 0 190zm159 0l31 0 131 -173 0 173 32 0 0 -219 -31 0 -130 173 0 -173 -33 0 0 219z"/>
 </g>
</svg>
