<?xml version="1.0" encoding="UTF-8"?>
<!DOCTYPE svg PUBLIC "-//W3C//DTD SVG 1.0//EN" "http://www.w3.org/TR/2001/REC-SVG-20010904/DTD/svg10.dtd">
<!-- Creator: CorelDRAW X8 -->
<svg xmlns="http://www.w3.org/2000/svg" xml:space="preserve" width="211.842mm" height="11mm" version="1.0" style="shape-rendering:geometricPrecision; text-rendering:geometricPrecision; image-rendering:optimizeQuality; fill-rule:evenodd; clip-rule:evenodd"
viewBox="0 0 21184 1100"
 xmlns:xlink="http://www.w3.org/1999/xlink">
 <defs>
  <style type="text/css">
   <![CDATA[
    .fil1 {fill:white}
    .fil0 {fill:white;fill-opacity:0.301961}
   ]]>
  </style>
 </defs>
 <g id="Слой_x0020_1">
  <metadata id="CorelCorpID_0Corel-Layer"/>
  <g id="_2174294815248">
   <g id="_2174403542272">
    <path class="fil0" d="M2037 204c1911,59 4242,707 6666,700 2424,-8 5523,-164 8560,-259 -1252,-161 -2583,-233 -3906,-359 -3666,-160 -8211,-282 -11320,-82l0 0z"/>
    <path class="fil0" d="M15711 937c1850,99 3889,78 5514,8l0 -658c-309,51 816,-89 -916,134 -1733,224 -7227,-96 -8797,-61 -1571,36 -559,177 -864,192 1784,37 3214,287 5063,385l0 0z"/>
    <path class="fil0" d="M-26 179l0 574 0 70c921,-47 1586,-85 2705,-178 2223,-186 4534,-146 6817,-449 627,-84 549,-73 834,-111 -660,-24 -8564,-220 -10356,94l0 0z"/>
    <path class="fil1" d="M-26 508c1520,-145 3135,-240 4979,-215 3164,42 7001,437 10172,458 2298,16 4248,-165 6101,-401l0 -375 -21252 0 0 533 0 0z"/>
   </g>
  </g>
 </g>
</svg>
