<svg height="432pt" viewBox="-79 0 432 432.00225" width="432pt" xmlns="http://www.w3.org/2000/svg"><path d="m3.402344 431.40625c2.078125 1 4.546875.71875 6.347656-.71875l29.070312-23.253906 29.070313 23.253906c2.191406 1.753906 5.304687 1.753906 7.5 0l29.058594-23.253906 29.066406 23.25c2.191406 1.757812 5.308594 1.757812 7.5 0l29.0625-23.25 29.066406 23.25c2.191407 1.757812 5.304688 1.757812 7.5 0l29.058594-23.25 29.046875 23.25c1.800781 1.441406 4.269531 1.726562 6.351562.726562 2.078126-1 3.398438-3.101562 3.398438-5.410156v-420c0-3.3125-2.683594-6-6-6h-262.5c-3.3125 0-6 2.6875-6 6v420c0 2.304688 1.324219 4.410156 3.402344 5.40625zm8.597656-419.40625h250.5v401.515625l-23.058594-18.449219c-2.191406-1.757812-5.308594-1.757812-7.5 0l-29.058594 23.25-29.0625-23.25c-2.191406-1.757812-5.308593-1.757812-7.5 0l-29.066406 23.25-29.0625-23.25c-2.191406-1.757812-5.308594-1.757812-7.5 0l-29.066406 23.25-29.070312-23.253906c-2.191407-1.753906-5.308594-1.753906-7.5 0l-23.070313 18.457031zm0 0"/><path d="m40.066406 212h2.347656c3.3125 0 6-2.6875 6-6s-2.6875-6-6-6h-2.347656c-3.316406 0-6 2.6875-6 6s2.683594 6 6 6zm0 0"/><path d="m65.828125 212h17.726563c3.316406 0 6-2.6875 6-6s-2.683594-6-6-6h-17.726563c-3.316406 0-6 2.6875-6 6s2.683594 6 6 6zm0 0"/><path d="m107.351562 212h127.085938c3.3125 0 6-2.6875 6-6s-2.6875-6-6-6h-127.085938c-3.3125 0-6 2.6875-6 6s2.6875 6 6 6zm0 0"/><path d="m40.066406 162h2.347656c3.3125 0 6-2.6875 6-6s-2.6875-6-6-6h-2.347656c-3.316406 0-6 2.6875-6 6s2.683594 6 6 6zm0 0"/><path d="m65.828125 162h17.726563c3.316406 0 6-2.6875 6-6s-2.683594-6-6-6h-17.726563c-3.316406 0-6 2.6875-6 6s2.683594 6 6 6zm0 0"/><path d="m107.351562 162h127.085938c3.3125 0 6-2.6875 6-6s-2.6875-6-6-6h-127.085938c-3.3125 0-6 2.6875-6 6s2.6875 6 6 6zm0 0"/><path d="m40.066406 112h2.347656c3.3125 0 6-2.6875 6-6s-2.6875-6-6-6h-2.347656c-3.316406 0-6 2.6875-6 6s2.683594 6 6 6zm0 0"/><path d="m65.828125 112h17.726563c3.316406 0 6-2.6875 6-6s-2.683594-6-6-6h-17.726563c-3.316406 0-6 2.6875-6 6s2.683594 6 6 6zm0 0"/><path d="m107.351562 112h127.085938c3.3125 0 6-2.6875 6-6s-2.6875-6-6-6h-127.085938c-3.3125 0-6 2.6875-6 6s2.6875 6 6 6zm0 0"/><path d="m40.066406 262h2.347656c3.3125 0 6-2.6875 6-6s-2.6875-6-6-6h-2.347656c-3.316406 0-6 2.6875-6 6s2.683594 6 6 6zm0 0"/><path d="m65.828125 262h17.726563c3.316406 0 6-2.6875 6-6s-2.683594-6-6-6h-17.726563c-3.316406 0-6 2.6875-6 6s2.683594 6 6 6zm0 0"/><path d="m107.351562 262h127.085938c3.3125 0 6-2.6875 6-6s-2.6875-6-6-6h-127.085938c-3.3125 0-6 2.6875-6 6s2.6875 6 6 6zm0 0"/><path d="m55.082031 364.121094c-.039062 0-.070312-.007813-.109375-.007813-.035156 0-.070312.003907-.105468.007813-4.871094-.066406-8.792969-4.027344-8.800782-8.902344 0-3.3125-2.6875-6-6-6s-6 2.6875-6 6c.015625 9.230469 6.070313 17.363281 14.910156 20.023438v3.757812c0 3.3125 2.6875 6 6 6s6-2.6875 6-6v-3.757812c9.953126-2.964844 16.21875-12.785157 14.710938-23.0625-1.503906-10.273438-10.328125-17.882813-20.710938-17.867188-4.921874 0-8.910156-3.988281-8.910156-8.90625 0-4.921875 3.988282-8.910156 8.910156-8.910156 4.917969 0 8.90625 3.988281 8.90625 8.90625 0 3.316406 2.6875 6 6 6 3.316407 0 6-2.683594 6-6-.011718-9.226563-6.066406-17.359375-14.90625-20.019532v-3.082031c0-3.316406-2.6875-6-6-6s-6 2.683594-6 6v3.078125c-9.953124 2.964844-16.21875 12.785156-14.710937 23.0625 1.503906 10.273438 10.328125 17.882813 20.710937 17.867188 4.917969-.027344 8.929688 3.933594 8.957032 8.851562.03125 4.921875-3.933594 8.929688-8.851563 8.960938zm0 0"/><path d="m234.4375 350.710938h-11.425781c-3.316407 0-6 2.6875-6 6 0 3.316406 2.683593 6 6 6h11.425781c3.3125 0 6-2.683594 6-6 0-3.3125-2.6875-6-6-6zm0 0"/><path d="m201.507812 350.710938h-32.820312c-3.316406 0-6 2.6875-6 6 0 3.316406 2.683594 6 6 6h32.820312c3.3125 0 6-2.683594 6-6 0-3.3125-2.6875-6-6-6zm0 0"/><path d="m102.933594 362.710938h44.5c3.3125 0 6-2.683594 6-6 0-3.3125-2.6875-6-6-6h-44.5c-3.3125 0-6 2.6875-6 6 0 3.316406 2.6875 6 6 6zm0 0"/></svg>