<svg height="492pt" viewBox="0 -41 492.00143 492" width="492pt" xmlns="http://www.w3.org/2000/svg"><path d="m455.75 0h-383.195312c-20.011719.0234375-36.230469 16.238281-36.253907 36.253906v158.199219c-35.792969 36.507813-46.195312 90.925781-26.382812 138.058594 19.808593 47.132812 65.960937 77.78125 117.089843 77.753906 67.015626 0 122.070313-52.175781 126.6875-118.035156h202.054688c20.011719-.023438 36.226562-16.242188 36.25-36.25v-219.726563c-.023438-20.011718-16.238281-36.2304685-36.25-36.253906zm-328.742188 398.265625c-63.515624 0-115.007812-51.492187-115.007812-115.007813 0-63.519531 51.492188-115.007812 115.011719-115.007812 63.515625 0 115.007812 51.492188 115.007812 115.007812-.074219 63.488282-51.523437 114.9375-115.011719 115.007813zm352.992188-142.285156c-.011719 13.386719-10.863281 24.238281-24.25 24.253906h-201.769531c-1.121094-48.128906-29.371094-91.484375-72.949219-111.949219-43.574219-20.460937-94.980469-14.511718-132.730469 15.363282v-147.394532c.015625-13.390625 10.867188-24.238281 24.253907-24.253906h383.195312c13.386719.015625 24.234375 10.863281 24.25 24.253906zm0 0"/><path d="m385.414062 167.359375c-6.738281-.007813-13.390624 1.511719-19.460937 4.4375-18.882813-9.078125-41.53125-3.898437-54.59375 12.484375-13.058594 16.382812-13.058594 39.617188 0 56 13.0625 16.382812 35.710937 21.5625 54.59375 12.484375 16.648437 8.003906 36.5 5.003906 50.035156-7.566406 13.535157-12.570313 17.996094-32.144531 11.242188-49.339844-6.753907-17.191406-23.34375-28.496094-41.816407-28.496094zm-38.921874 77.84375c-12.671876.011719-24.226563-7.253906-29.707032-18.679687-5.484375-11.425782-3.921875-24.984376 4.015625-34.863282s20.84375-14.324218 33.183594-11.429687c-8.628906 8.433593-13.488281 19.984375-13.488281 32.050781 0 12.0625 4.859375 23.613281 13.488281 32.046875-2.457031.578125-4.96875.871094-7.492187.875zm32.921874-32.921875c-.003906 10.484375-5 20.339844-13.460937 26.53125-8.460937-6.191406-13.460937-16.046875-13.460937-26.53125s5-20.339844 13.460937-26.53125c8.457031 6.191406 13.457031 16.046875 13.460937 26.53125zm6 32.921875c-2.519531-.003906-5.035156-.292969-7.488281-.871094 8.625-8.433593 13.488281-19.988281 13.488281-32.050781s-4.863281-23.617188-13.488281-32.046875c12.332031-2.882813 25.226563 1.566406 33.15625 11.441406 7.933594 9.875 9.492188 23.421875 4.019531 34.84375-5.476562 11.421875-17.019531 18.6875-29.6875 18.683594zm0 0"/><path d="m81.78125 66.863281h160.089844c3.3125 0 6-2.6875 6-6s-2.6875-6-6-6h-160.089844c-3.316406 0-6 2.6875-6 6s2.683594 6 6 6zm0 0"/><path d="m280.957031 54.863281h-17.339843c-3.3125 0-6 2.6875-6 6s2.6875 6 6 6h17.339843c3.3125 0 6-2.6875 6-6s-2.6875-6-6-6zm0 0"/><path d="m89.257812 85.117188h-7.476562c-3.316406 0-6 2.683593-6 6 0 3.3125 2.683594 6 6 6h7.476562c3.316407 0 6-2.6875 6-6 0-3.316407-2.683593-6-6-6zm0 0"/><path d="m211.621094 85.117188h-99.964844c-3.316406 0-6 2.683593-6 6 0 3.3125 2.683594 6 6 6h99.964844c3.3125 0 6-2.6875 6-6 0-3.316407-2.6875-6-6-6zm0 0"/><path d="m280.957031 85.117188h-47.589843c-3.316407 0-6 2.683593-6 6 0 3.3125 2.683593 6 6 6h47.589843c3.3125 0 6-2.6875 6-6 0-3.316407-2.6875-6-6-6zm0 0"/><path d="m127.007812 230.28125c12.785157.011719 23.144532 10.371094 23.160157 23.152344 0 3.3125 2.6875 6 6 6s6-2.6875 6-6c-.023438-17.09375-12.320313-31.699219-29.160157-34.636719v-10.539063c0-3.3125-2.683593-6-6-6-3.3125 0-6 2.6875-6 6v10.542969c-17.980468 3.113281-30.589843 19.46875-29.027343 37.652344 1.5625 18.179687 16.777343 32.144531 35.027343 32.140625 12.769532-.046875 23.164063 10.25 23.242188 23.015625s-10.191406 23.183594-22.957031 23.292969c-.09375 0-.1875-.011719-.285157-.011719-.09375 0-.1875.007813-.28125.011719-12.671874-.164063-22.859374-10.476563-22.875-23.148438 0-3.316406-2.6875-6-6-6s-6 2.683594-6 6c.023438 17.089844 12.320313 31.699219 29.15625 34.636719v11.867187c0 3.316407 2.6875 6 6 6 3.316407 0 6-2.683593 6-6v-11.867187c17.980469-3.117187 30.589844-19.472656 29.027344-37.652344-1.5625-18.179687-16.777344-32.144531-35.027344-32.144531-8.308593.054688-16.011718-4.347656-20.179687-11.535156-4.171875-7.1875-4.171875-16.058594 0-23.246094 4.167969-7.1875 11.871094-11.585938 20.179687-11.53125zm0 0"/></svg>