<svg viewBox="0 0 150 32" xmlns="http://www.w3.org/2000/svg"><g fill="none" fill-rule="evenodd"><path d="M0 0h150.456v32H0z"/><g fill-rule="nonzero"><path d="M9.591 4.923H8.23c-2.056 0-4.048 1.361-4.048 5.31 0 3.815 1.826 5.044 4.048 5.044H9.59zM7.466 17.402l-4.048 9.092H.466l4.446-9.723C2.82 15.71 1.43 13.786 1.43 10.233c0-4.978 3.151-7.465 6.9-7.465h3.816v23.726H9.59v-9.092z" fill="red"/><path d="M61.798 18.131c0-5.243 2.025-8.594 5.94-8.594 1.494 0 2.358.398 3.085.863l-.365 2.455c-.697-.598-1.69-1.163-2.753-1.163-1.86 0-3.185 2.092-3.185 6.306 0 4.181.994 6.572 3.085 6.572 1.262 0 2.225-.498 2.823-1.03l.595 1.926c-.894.761-1.957 1.26-3.484 1.26-3.583 0-5.741-2.887-5.741-8.595zm-7.565.033v8.329h-2.59V9.769h2.59V17.5l4.015-7.73h2.623l-4.15 7.863 4.745 8.86h-2.82zm-12.18-1.56h4.28c0-2.853-.464-4.942-1.956-4.942-1.594 0-2.158 1.956-2.324 4.942zm2.855 10.121c-3.453 0-5.575-2.753-5.575-7.897 0-5.376 1.491-9.291 5.044-9.291 2.786 0 4.613 2.089 4.613 7.764v1.428h-6.97c0 3.782 1.062 5.774 3.118 5.774 1.461 0 2.623-.664 3.287-1.129l.598 1.993c-1.063.83-2.457 1.358-4.115 1.358zM33.891 11.858H31v.3c0 3.519-.162 8.662-1.557 12.212h4.447zm3.882 17.922H35.45v-3.287h-7.169v3.287h-2.324v-5.41h1.03c1.526-3.55 1.692-8.726 1.692-13.173V9.77h7.764V24.37h1.329zM24.466 9.77v16.723H21.91v-7.499H18.06v7.499h-2.59V9.769h2.59v7.1h3.849v-7.1zM81.278 9.736c-.332-1.229-.597-2.291-.797-3.384h-.1c.067 1.129.1 2.321.1 3.516v16.627h-1.458V2.765h1.923l4.018 15.166c.166.631.398 1.86.495 2.756h.1c.132-.896.398-2.158.564-2.756l4.048-15.165h1.86v23.729h-1.592V9.868c0-1.128.064-2.324.13-3.516h-.13a83.038 83.038 0 0 1-.8 3.284l-3.55 13.207h-1.294zM102.326 22.28v-4.612h-1.79c-2.756 0-4.084 1.261-4.084 4.18 0 2.355 1.029 3.716 2.623 3.716 1.56 0 2.653-1.494 3.25-3.284m.067 1.959c-.797 1.591-1.99 2.587-3.65 2.587-2.257 0-3.815-1.793-3.815-4.845 0-3.583 1.956-5.442 5.573-5.442h1.826v-2.092c0-2.554-.963-3.65-2.786-3.65-1.428 0-2.723.664-3.52 1.827l-.432-1.495c.664-.863 2.059-1.693 3.952-1.693 2.753 0 4.313 1.527 4.313 4.845v9.128c0 1.16.166 2.454.365 3.085h-1.427c-.133-.432-.3-1.062-.399-2.255M115.608 17.766c0-4.38-1.195-6.97-3.118-6.97-1.495 0-2.756 1.594-3.487 3.387v9.358c.664 1.361 1.594 2.022 3.088 2.022 2.122 0 3.517-2.52 3.517-7.797m-6.605 7.565v6.339h-1.558V9.77h1.362l.13 2.753c.73-1.594 1.959-3.085 3.818-3.085 2.786 0 4.41 3.35 4.41 8.195 0 6.14-2.055 9.159-5.173 9.159a3.79 3.79 0 0 1-2.989-1.461M121.72 26.494h-1.558V9.77h1.558v7.863l5.609-7.863h1.527l-5.509 7.764 5.907 8.959h-1.726l-5.808-8.66zM131.515 17.169h6.074c.265-4.446-1.063-6.439-2.754-6.439-1.76 0-3.187 2.258-3.32 6.439m3.65 8.298c2.224 0 3.386-1.793 3.386-1.793l.498 1.262s-1.261 1.89-3.915 1.89c-3.552 0-5.177-3.218-5.177-8.694s2.056-8.694 4.878-8.694c2.886 0 4.746 3.019 4.214 8.96h-7.567c.066 4.579 1.262 7.069 3.683 7.069M145.923 11.062v15.432h-1.558V11.062h-3.885V9.77h9.294v1.292z" fill="#222"/></g></g></svg>