<?xml version="1.0" encoding="UTF-8" ?>
<!DOCTYPE svg PUBLIC "-//W3C//DTD SVG 1.1//EN" "http://www.w3.org/Graphics/SVG/1.1/DTD/svg11.dtd">
<svg width="640pt" height="640pt" viewBox="0 0 640 640" version="1.1" xmlns="http://www.w3.org/2000/svg">
<path fill="#ffffff" fill-opacity="0" d=" M 0.00 0.00 L 570.21 0.00 C 533.73 38.28 497.27 76.60 460.89 114.97 C 459.66 116.24 458.08 117.08 456.46 117.73 C 433.72 126.40 411.41 136.29 389.98 147.84 C 360.13 128.85 329.77 110.56 298.07 94.80 C 284.46 88.19 270.62 81.80 256.03 77.65 C 247.36 75.38 237.89 73.18 229.16 76.37 C 223.39 78.40 219.12 83.86 218.46 89.93 C 217.27 100.74 220.02 111.45 222.49 121.89 C 228.07 143.49 235.54 164.54 243.20 185.47 C 267.51 250.62 295.27 314.42 323.69 377.87 C 306.70 390.36 289.60 402.77 273.49 416.40 C 269.64 419.96 264.85 423.48 263.90 428.99 C 263.38 433.84 267.39 437.89 271.83 439.09 C 280.94 441.66 290.52 441.64 299.88 442.54 C 286.17 452.19 272.38 461.81 259.46 472.53 C 256.25 475.46 252.49 478.53 251.62 483.04 C 250.86 487.61 254.49 492.13 258.96 492.92 C 263.92 493.92 269.01 493.14 274.00 492.68 C 286.89 491.33 299.63 488.93 312.45 487.05 C 307.58 492.64 302.34 498.05 298.69 504.56 C 296.49 508.42 296.28 514.04 300.01 517.07 C 303.58 520.25 308.71 519.36 313.08 519.18 C 336.86 516.87 360.50 513.26 384.14 509.77 C 385.75 509.41 387.34 509.89 388.87 510.42 C 410.33 518.09 431.92 525.41 453.53 532.63 C 457.05 533.93 461.00 534.54 463.97 537.00 C 499.32 571.25 534.39 605.79 569.78 640.00 L 0.00 640.00 L 0.00 0.00 Z" />
<path fill="#ffffff" d=" M 570.21 0.00 L 640.00 0.00 L 640.00 640.00 L 569.78 640.00 C 534.39 605.79 499.32 571.25 463.97 537.00 C 461.00 534.54 457.05 533.93 453.53 532.63 C 431.92 525.41 410.33 518.09 388.87 510.42 C 387.34 509.89 385.75 509.41 384.14 509.77 C 360.50 513.26 336.86 516.87 313.08 519.18 C 308.71 519.36 303.58 520.25 300.01 517.07 C 296.28 514.04 296.49 508.42 298.69 504.56 C 302.34 498.05 307.58 492.64 312.45 487.05 C 299.63 488.93 286.89 491.33 274.00 492.68 C 269.01 493.14 263.92 493.92 258.96 492.92 C 254.49 492.13 250.86 487.61 251.62 483.04 C 252.49 478.53 256.25 475.46 259.46 472.53 C 272.38 461.81 286.17 452.19 299.88 442.54 C 290.52 441.64 280.94 441.66 271.83 439.09 C 267.39 437.89 263.38 433.84 263.90 428.99 C 264.85 423.48 269.64 419.96 273.49 416.40 C 289.60 402.77 306.70 390.36 323.69 377.87 C 295.27 314.42 267.51 250.62 243.20 185.47 C 235.54 164.54 228.07 143.49 222.49 121.89 C 220.02 111.45 217.27 100.74 218.46 89.93 C 219.12 83.86 223.39 78.40 229.16 76.37 C 237.89 73.18 247.36 75.38 256.03 77.65 C 270.62 81.80 284.46 88.19 298.07 94.80 C 329.77 110.56 360.13 128.85 389.98 147.84 C 411.41 136.29 433.72 126.40 456.46 117.73 C 458.08 117.08 459.66 116.24 460.89 114.97 C 497.27 76.60 533.73 38.28 570.21 0.00 Z" />
<path fill="#222222" d=" M 234.53 91.47 C 242.97 90.31 251.19 93.10 259.08 95.71 C 278.20 102.54 296.29 111.91 314.11 121.55 C 339.74 135.69 364.85 150.79 389.26 166.95 C 412.81 153.43 437.70 142.38 463.02 132.64 C 497.64 119.59 533.38 109.28 569.90 103.23 C 569.88 201.69 569.94 300.15 569.87 398.61 C 563.70 399.89 557.03 400.20 551.56 403.63 C 547.14 406.65 547.45 413.00 549.98 417.16 C 554.92 425.55 562.61 431.78 569.66 438.32 C 570.23 476.70 569.72 515.15 569.91 553.56 C 509.25 534.04 448.62 514.34 388.56 493.03 C 388.19 493.00 387.45 492.93 387.07 492.90 C 365.11 495.96 343.20 499.66 321.12 501.80 C 333.34 487.85 346.56 474.84 359.53 461.61 C 333.98 466.31 308.52 471.71 282.74 474.96 C 304.79 458.39 327.82 443.19 350.44 427.43 C 329.80 426.92 309.10 427.11 288.52 425.25 C 306.30 410.40 325.23 396.94 343.99 383.35 C 318.48 326.58 293.45 269.55 270.64 211.63 C 262.45 190.71 254.51 169.68 247.41 148.36 C 243.24 135.68 239.23 122.91 236.43 109.84 C 235.17 103.80 234.04 97.66 234.53 91.47 Z" />
<path fill="#ffffff" d=" M 305.56 173.01 C 306.86 169.66 310.88 168.67 314.09 169.48 C 320.09 170.87 325.36 174.27 330.49 177.53 C 338.30 182.80 345.82 188.53 352.87 194.79 C 345.24 213.61 338.07 232.62 330.34 251.40 C 321.42 231.64 313.04 211.50 307.09 190.62 C 305.80 184.91 303.72 178.81 305.56 173.01 Z" />
<path fill="#ffffff" d=" M 416.21 333.23 C 420.93 325.86 430.65 322.20 439.00 325.02 C 446.28 327.61 451.58 333.67 455.75 339.93 C 465.86 339.51 475.97 339.17 486.08 338.74 C 486.49 339.37 487.31 340.62 487.72 341.25 C 485.66 343.67 482.42 344.30 479.61 345.43 C 458.07 353.61 436.50 361.74 414.97 369.97 C 413.55 370.40 411.99 371.20 410.52 370.53 C 409.08 368.67 409.66 366.16 409.44 363.99 C 409.33 353.48 410.33 342.26 416.21 333.23 Z" />
</svg>
